<svg width="25.713989" height="36.000366" viewBox="0 0 25.714 36.0004" fill="none" xmlns="http://www.w3.org/2000/svg" xmlns:xlink="http://www.w3.org/1999/xlink">
	<desc>
			Created with Pixso.
	</desc>
	<defs/>
	<path id="ionicons svg md pin" d="M12.85 0C9.48 -0.03 6.23 1.28 3.83 3.64C1.42 6 0.04 9.22 0 12.6C0 22.05 12.85 36 12.85 36C12.85 36 25.71 22.05 25.71 12.6C25.66 9.22 24.29 6 21.88 3.64C19.47 1.28 16.22 -0.03 12.85 0ZM12.85 17.1C11.97 17.08 11.11 16.8 10.38 16.29C9.65 15.79 9.09 15.08 8.76 14.25C8.43 13.43 8.36 12.53 8.54 11.66C8.73 10.8 9.16 10 9.79 9.38C10.43 8.76 11.23 8.34 12.1 8.18C12.97 8.01 13.87 8.1 14.69 8.45C15.5 8.79 16.2 9.37 16.69 10.11C17.18 10.84 17.44 11.71 17.44 12.6C17.44 13.19 17.32 13.79 17.09 14.34C16.86 14.89 16.52 15.39 16.09 15.81C15.67 16.23 15.16 16.56 14.6 16.78C14.05 17 13.45 17.11 12.85 17.1Z" fill="#65C511" fill-opacity="1.000000" fill-rule="nonzero"/>
</svg>
