<svg width="592.025635" height="66.730957" viewBox="0 0 592.026 66.731" fill="none" xmlns="http://www.w3.org/2000/svg" xmlns:xlink="http://www.w3.org/1999/xlink">
	<desc>
			Created with Pixso.
	</desc>
	<defs/>
	<path id="Our mission" d="M64.51 46.62Q66.92 40.49 66.92 33.33Q66.92 26.23 64.51 20.14Q62.61 15.34 59.48 11.55Q58.64 10.51 57.7 9.55Q57.15 8.99 56.57 8.46Q52.55 4.75 47.15 2.54Q41 0 33.48 0Q25.97 0 19.79 2.54Q14.51 4.71 10.51 8.3Q9.85 8.9 9.22 9.53Q8.25 10.51 7.37 11.58Q4.27 15.34 2.39 20.1Q0 26.19 0 33.33Q0 40.49 2.39 46.62Q4.27 51.38 7.37 55.14Q8.25 56.21 9.22 57.19Q9.71 57.68 10.21 58.14Q14.31 61.91 19.79 64.18Q25.97 66.73 33.48 66.73Q41 66.73 47.15 64.18Q52.86 61.82 57.03 57.84Q57.37 57.52 57.7 57.19Q58.58 56.29 59.39 55.32Q62.58 51.49 64.51 46.62ZM370.72 14.74Q371.38 14.26 372.01 13.22L375.35 6.87Q371.88 3.62 366.85 1.82Q361.84 0 355.95 0Q350.68 0 346.61 1.62Q342.55 3.22 339.76 5.88Q337.78 7.77 336.47 10.05Q335.94 10.98 335.52 11.97Q334.69 13.94 334.34 16Q334.09 17.49 334.09 19.02Q334.09 23.57 335.36 26.63Q336.64 29.68 338.7 31.77Q339.86 32.91 341.18 33.8Q342.25 34.53 343.43 35.09Q345.12 35.88 346.87 36.54Q347.86 36.91 348.88 37.24Q351.67 38.14 354.33 38.89Q356.99 39.63 359.05 40.67Q361.12 41.7 362.39 43.24Q362.5 43.36 362.59 43.49Q363.69 44.96 363.69 47.24Q363.69 50.71 361.98 52.78Q361.59 53.27 361.09 53.67Q358.52 55.83 353.8 55.83Q350.55 55.83 348.22 54.93Q345.91 54.03 344.15 52.95Q342.4 51.87 341.06 50.97Q339.71 50.07 338.48 50.07Q338.19 50.07 337.9 50.12Q337.32 50.23 336.77 50.55Q336.22 50.87 335.81 51.32Q335.63 51.52 335.47 51.74L331.52 58.13Q333.41 60.07 335.91 61.65Q338.44 63.21 341.3 64.33Q344.15 65.45 347.23 66.09Q350.33 66.73 353.43 66.73Q358.88 66.73 363.16 65.06Q367.47 63.39 370.39 60.49Q371.54 59.35 372.47 58.05Q373.92 56.06 374.87 53.7Q374.99 53.4 375.1 53.1Q376.43 49.46 376.43 45.35Q376.43 41.26 375.13 38.4Q373.86 35.55 371.77 33.57Q371.23 33.05 370.65 32.58Q368.99 31.23 367.03 30.27Q364.9 29.22 362.68 28.39Q362.13 28.18 361.58 27.99Q358.79 27.02 356.13 26.23Q353.47 25.42 351.38 24.38Q349.29 23.33 348 21.92Q347.65 21.53 347.4 21.09Q346.72 19.91 346.72 18.34Q346.72 16.3 347.58 14.73Q348.14 13.71 349.05 12.89Q351.4 10.78 356.08 10.78Q358.74 10.78 360.72 11.49Q362.7 12.19 364.21 13Q365.75 13.79 366.9 14.5Q368.06 15.2 369.05 15.2Q370.08 15.2 370.72 14.74ZM420.31 14.74Q420.97 14.26 421.6 13.22L424.94 6.87Q421.47 3.62 416.44 1.82Q411.43 0 405.54 0Q400.27 0 396.2 1.62Q392.14 3.22 389.35 5.88Q387.37 7.77 386.06 10.05Q385.53 10.98 385.11 11.97Q384.28 13.94 383.93 16Q383.68 17.49 383.68 19.02Q383.68 23.57 384.95 26.63Q386.23 29.68 388.29 31.77Q389.45 32.91 390.77 33.8Q391.84 34.53 393.02 35.09Q394.71 35.88 396.46 36.54Q397.45 36.91 398.47 37.24Q401.26 38.14 403.92 38.89Q406.58 39.63 408.64 40.67Q410.71 41.7 411.98 43.24Q412.09 43.36 412.18 43.49Q413.28 44.96 413.28 47.24Q413.28 50.71 411.57 52.78Q411.18 53.27 410.68 53.67Q408.11 55.83 403.39 55.83Q400.14 55.83 397.81 54.93Q395.5 54.03 393.74 52.95Q391.99 51.87 390.65 50.97Q389.3 50.07 388.07 50.07Q387.78 50.07 387.49 50.12Q386.91 50.23 386.36 50.55Q385.81 50.87 385.4 51.32Q385.22 51.52 385.06 51.74L381.11 58.13Q383 60.07 385.5 61.65Q388.03 63.21 390.89 64.33Q393.74 65.45 396.82 66.09Q399.92 66.73 403.02 66.73Q408.47 66.73 412.75 65.06Q417.06 63.39 419.98 60.49Q421.13 59.35 422.06 58.05Q423.51 56.06 424.46 53.7Q424.58 53.4 424.69 53.1Q426.02 49.46 426.02 45.35Q426.02 41.26 424.72 38.4Q423.45 35.55 421.36 33.57Q420.82 33.05 420.24 32.58Q418.58 31.23 416.62 30.27Q414.49 29.22 412.27 28.39Q411.72 28.18 411.17 27.99Q408.38 27.02 405.72 26.23Q403.06 25.42 400.97 24.38Q398.88 23.33 397.59 21.92Q397.24 21.53 396.99 21.09Q396.31 19.91 396.31 18.34Q396.31 16.3 397.17 14.73Q397.73 13.71 398.64 12.89Q400.99 10.78 405.67 10.78Q408.33 10.78 410.31 11.49Q412.29 12.19 413.8 13Q415.34 13.79 416.49 14.5Q417.65 15.2 418.64 15.2Q419.67 15.2 420.31 14.74ZM523.78 46.62Q526.19 40.49 526.19 33.33Q526.19 26.23 523.78 20.14Q521.88 15.34 518.76 11.55Q517.9 10.51 516.96 9.55Q516.42 8.99 515.84 8.46Q511.82 4.75 506.42 2.54Q500.27 0 492.75 0Q485.24 0 479.06 2.54Q473.78 4.71 469.78 8.3Q469.12 8.9 468.49 9.53Q467.52 10.51 466.64 11.58Q463.54 15.34 461.66 20.1Q459.27 26.19 459.27 33.33Q459.27 40.49 461.66 46.62Q463.54 51.38 466.64 55.14Q467.52 56.21 468.49 57.19Q468.98 57.68 469.48 58.14Q473.58 61.91 479.06 64.18Q485.24 66.73 492.75 66.73Q500.27 66.73 506.42 64.18Q512.13 61.82 516.3 57.84Q516.64 57.52 516.96 57.19Q517.85 56.29 518.66 55.32Q521.85 51.49 523.78 46.62ZM109.44 54.09Q106.82 55.19 103.55 55.19Q100.21 55.19 97.59 54.09Q95.77 53.32 94.34 52.09Q93.74 51.57 93.2 50.97Q91.4 48.95 90.45 46.07Q89.51 43.19 89.51 39.59L89.51 0.7L76 0.7L76 39.59Q76 45.52 77.91 50.51Q79.51 54.62 82.2 57.79Q82.77 58.46 83.38 59.08Q83.4 59.11 83.43 59.13Q86.97 62.68 92.04 64.7Q97.15 66.73 103.55 66.73Q109.94 66.73 115.02 64.7Q119.97 62.71 123.48 59.25Q123.57 59.17 123.65 59.08Q124.4 58.33 125.07 57.51Q127.61 54.44 129.13 50.51Q131.04 45.52 131.04 39.59L131.04 0.7L117.55 0.7L117.55 39.59Q117.55 43.19 116.6 46.07Q115.66 48.95 113.85 50.97Q113.38 51.51 112.84 51.98Q111.36 53.28 109.44 54.09ZM183.78 66L195.98 66L180.77 42.51Q179.87 41.11 178.73 40.1Q177.71 39.18 176.55 38.51Q176.43 38.45 176.31 38.38Q179.59 37.24 182.16 35.39Q184.73 33.55 186.49 31.17Q186.96 30.53 187.38 29.84Q188.49 28 189.17 25.88Q190.09 22.98 190.09 19.75Q190.09 15.55 188.64 12.08Q188.25 11.13 187.73 10.26Q186.35 7.9 184.09 6.06Q180.99 3.53 176.12 2.13Q171.26 0.7 164.43 0.7L143.9 0.7L143.9 66L157.42 66L157.42 41.11L162.01 41.11Q163.81 41.11 164.71 41.66Q165.63 42.2 166.4 43.37L178.84 63.39Q179.41 64.37 180.25 64.98Q181.64 66 183.78 66ZM295.74 66L295.74 0.7L285.48 0.7Q284.58 0.7 283.92 0.74Q283.28 0.79 282.75 1.01Q282.25 1.2 281.79 1.64Q281.35 2.06 280.93 2.83L262.8 37.52Q261.94 39.08 261.2 40.8Q260.45 42.51 259.79 44.31Q259.11 42.56 258.36 40.89Q257.62 39.22 256.78 37.66L238.5 2.83Q238.1 2.06 237.66 1.64Q237.31 1.27 236.87 1.07Q236.8 1.03 236.72 1.01Q236.21 0.79 235.53 0.74Q234.85 0.7 233.99 0.7L223.73 0.7L223.73 66L235.66 66L235.66 25.9Q235.66 24.65 235.58 23.2Q235.49 21.73 235.36 20.14L254.12 55.7Q254.74 56.98 255.76 57.71Q255.9 57.81 256.03 57.89Q256.21 58 256.39 58.09Q257.49 58.62 258.85 58.62L260.74 58.62Q262.22 58.62 263.35 57.98Q264.64 57.25 265.46 55.7L284.14 20.28Q283.96 21.77 283.87 23.22Q283.81 24.65 283.81 25.9L283.81 66L295.74 66ZM309.37 66L322.97 66L322.97 0.7L309.37 0.7L309.37 66ZM435.82 66L449.42 66L449.42 0.7L435.82 0.7L435.82 66ZM592.02 66L592.02 0.7L580.09 0.7L580.09 38.05Q580.09 39.5 580.18 41.11Q580.27 42.69 580.46 44.4L547.7 2.83Q547.15 2.15 546.69 1.75Q546.25 1.34 545.75 1.09Q545.26 0.83 544.65 0.76Q544.05 0.7 543.2 0.7L536.08 0.7L536.08 66L548.01 66L548.01 28.25Q548.01 26.93 547.94 25.42Q547.88 23.88 547.75 22.3L580.27 63.72Q581.32 64.97 582.4 65.5Q583.47 66 585.06 66L592.02 66ZM170.01 30.8Q167.63 31.61 164.34 31.61L157.42 31.61L157.42 10.96L164.43 10.96Q170.73 10.96 173.81 13.53Q174.74 14.31 175.39 15.27Q176.88 17.5 176.88 20.74Q176.88 23.07 176.16 25.04Q175.86 25.9 175.39 26.66Q174.79 27.66 173.92 28.49Q172.4 29.97 170.01 30.8ZM51.74 24.14Q53.1 28.21 53.1 33.33Q53.1 38.51 51.74 42.58Q50.4 46.64 47.85 49.48Q47.03 50.4 46.09 51.19Q44.14 52.81 41.7 53.83Q38.07 55.34 33.48 55.34Q28.89 55.34 25.24 53.83Q22.75 52.79 20.78 51.15Q19.86 50.38 19.05 49.48Q16.52 46.64 15.16 42.58Q13.82 38.51 13.82 33.33Q13.82 28.21 15.16 24.14Q16.52 20.06 19.05 17.2Q19.95 16.18 21 15.34Q22.89 13.81 25.24 12.85Q28.89 11.33 33.48 11.33Q38.07 11.33 41.7 12.85Q44 13.8 45.87 15.3Q46.93 16.16 47.85 17.2Q50.4 20.06 51.74 24.14ZM511.01 24.14Q512.37 28.21 512.37 33.33Q512.37 38.51 511.01 42.58Q509.67 46.64 507.12 49.48Q506.3 50.4 505.36 51.19Q503.41 52.81 500.97 53.83Q497.34 55.34 492.75 55.34Q488.16 55.34 484.51 53.83Q482.02 52.79 480.05 51.15Q479.13 50.38 478.32 49.48Q475.79 46.64 474.43 42.58Q473.09 38.51 473.09 33.33Q473.09 28.21 474.43 24.14Q475.79 20.06 478.32 17.2Q479.22 16.18 480.27 15.34Q482.16 13.81 484.51 12.85Q488.16 11.33 492.75 11.33Q497.34 11.33 500.97 12.85Q503.27 13.8 505.14 15.3Q506.2 16.16 507.12 17.2Q509.67 20.06 511.01 24.14Z" fill="#000000" fill-opacity="0.050000" fill-rule="evenodd"/>
</svg>
