<svg width="48.660004" height="46.789062" viewBox="0 0 48.66 46.7891" fill="none" xmlns="http://www.w3.org/2000/svg" xmlns:xlink="http://www.w3.org/1999/xlink">
	<desc>
			Created with Pixso.
	</desc>
	<defs/>
	<g opacity="0.050000">
		<path id="ionicons svg ios heart empty" d="M35.55 0L35.44 0C33.23 0.01 31.05 0.57 29.11 1.63C27.17 2.69 25.53 4.22 24.33 6.08C23.12 4.22 21.48 2.69 19.54 1.63C17.6 0.57 15.42 0.01 13.21 0L13.1 0C9.61 0.03 6.28 1.43 3.83 3.91C1.37 6.39 0 9.73 0 13.21C0 17.54 1.89 23.68 5.59 28.74C12.63 38.36 24.33 46.78 24.33 46.78C24.33 46.78 36.03 38.36 43.06 28.74C46.76 23.68 48.66 17.54 48.66 13.21C48.65 9.73 47.28 6.38 44.82 3.91C42.37 1.43 39.04 0.03 35.55 0ZM40.42 26.81C35.44 33.62 27.85 39.92 24.32 42.67C20.8 39.92 13.21 33.61 8.22 26.79C4.79 22.11 3.26 16.61 3.26 13.21C3.26 10.59 4.29 8.08 6.14 6.22C7.98 4.36 10.49 3.3 13.11 3.28L13.21 3.28C14.9 3.28 16.55 3.72 18.02 4.55C19.46 5.35 20.68 6.5 21.58 7.88C21.88 8.34 22.28 8.71 22.76 8.97C23.24 9.23 23.78 9.37 24.33 9.37C24.87 9.37 25.41 9.23 25.89 8.97C26.37 8.71 26.78 8.34 27.08 7.88C27.98 6.5 29.2 5.36 30.63 4.55C32.1 3.72 33.76 3.28 35.44 3.28L35.55 3.28C38.17 3.3 40.67 4.36 42.52 6.22C44.36 8.08 45.4 10.59 45.4 13.21C45.08 18.13 43.35 22.85 40.42 26.81Z" fill="#000000" fill-opacity="1.000000" fill-rule="nonzero"/>
	</g>
</svg>
