<svg width="15.198486" height="10.529007" viewBox="0 0 15.1985 10.529" fill="none" xmlns="http://www.w3.org/2000/svg" xmlns:xlink="http://www.w3.org/1999/xlink">
	<desc>
			Created with Pixso.
	</desc>
	<defs/>
	<path id="Path 1" d="M15.07 1.29L11.14 5.29C11.13 5.3 11.12 5.32 11.12 5.34C11.12 5.35 11.13 5.37 11.14 5.39L13.89 8.31C13.93 8.36 13.97 8.41 13.99 8.47C14.02 8.53 14.03 8.59 14.03 8.65C14.03 8.71 14.02 8.77 13.99 8.83C13.97 8.89 13.93 8.94 13.89 8.99C13.8 9.07 13.68 9.12 13.55 9.12C13.43 9.12 13.31 9.07 13.22 8.99L10.48 6.08C10.46 6.06 10.44 6.06 10.42 6.06C10.4 6.06 10.39 6.06 10.37 6.08L9.7 6.76C9.43 7.04 9.1 7.26 8.74 7.41C8.38 7.56 7.99 7.64 7.6 7.64C7.2 7.64 6.81 7.56 6.44 7.4C6.07 7.25 5.74 7.02 5.46 6.73L4.82 6.08C4.81 6.06 4.79 6.06 4.77 6.06C4.75 6.06 4.73 6.06 4.71 6.08L1.98 9C1.89 9.08 1.76 9.13 1.64 9.13C1.51 9.13 1.39 9.08 1.3 9C1.26 8.95 1.22 8.9 1.2 8.84C1.18 8.78 1.16 8.72 1.16 8.66C1.16 8.6 1.18 8.53 1.2 8.48C1.22 8.42 1.26 8.37 1.3 8.32L4.05 5.39C4.06 5.38 4.07 5.36 4.07 5.34C4.07 5.33 4.06 5.31 4.05 5.29L0.12 1.29C0.11 1.28 0.1 1.28 0.08 1.27C0.07 1.27 0.05 1.27 0.04 1.28C0.03 1.28 0.01 1.29 0.01 1.3C0 1.32 -0.01 1.33 0 1.35L0 9.35C0 9.66 0.12 9.96 0.34 10.18C0.56 10.4 0.85 10.52 1.16 10.52L14.02 10.52C14.33 10.52 14.63 10.4 14.85 10.18C15.07 9.96 15.19 9.66 15.19 9.35L15.19 1.35C15.19 1.33 15.19 1.31 15.18 1.3C15.18 1.29 15.17 1.28 15.15 1.27C15.14 1.26 15.12 1.26 15.11 1.26C15.09 1.27 15.08 1.27 15.07 1.29Z" fill="#FFFFFF" fill-opacity="1.000000" fill-rule="nonzero"/>
	<path id="Path 2" d="M7.6 6.68C7.86 6.68 8.12 6.63 8.37 6.53C8.62 6.43 8.84 6.27 9.02 6.08L14.75 0.25C14.55 0.09 14.29 -7.63e-5 14.03 0L1.16 0C0.9 -0.01 0.64 0.08 0.44 0.25L6.17 6.08C6.36 6.27 6.58 6.43 6.82 6.53C7.07 6.63 7.33 6.68 7.6 6.68Z" fill="#FFFFFF" fill-opacity="1.000000" fill-rule="nonzero"/>
</svg>
