<svg width="14.996033" height="14.973608" viewBox="0 0 14.996 14.9736" fill="none" xmlns="http://www.w3.org/2000/svg" xmlns:xlink="http://www.w3.org/1999/xlink">
	<desc>
			Created with Pixso.
	</desc>
	<defs/>
	<path id="ionicons svg ios person" d="M14.98 14.59C14.7 13.35 13.1 12.74 12.54 12.54C11.87 12.38 11.19 12.25 10.51 12.15C10.16 12.09 9.84 11.94 9.57 11.72C9.47 11.08 9.45 10.44 9.5 9.79C9.67 9.52 9.82 9.24 9.95 8.95C10.09 8.46 10.2 7.97 10.28 7.47C10.28 7.47 10.6 7.47 10.71 6.9C10.86 6.48 10.96 6.04 11 5.59C10.98 5.15 10.73 5.16 10.73 5.16C10.92 4.51 11.01 3.83 11 3.16C10.91 2.29 10.5 1.49 9.85 0.9C9.21 0.32 8.37 0 7.5 0C6.62 0 5.78 0.32 5.14 0.9C4.49 1.49 4.08 2.29 4 3.16C3.99 3.83 4.08 4.51 4.26 5.16C4.26 5.16 4.01 5.15 3.99 5.6C4.03 6.04 4.13 6.48 4.28 6.9C4.39 7.47 4.71 7.47 4.71 7.47C4.79 7.97 4.89 8.46 5.04 8.95C5.16 9.24 5.31 9.53 5.48 9.8C5.54 10.44 5.52 11.08 5.42 11.72C5.15 11.94 4.82 12.09 4.48 12.16C3.79 12.25 3.11 12.38 2.44 12.55C1.89 12.75 0.28 13.35 0 14.59C-0.01 14.64 -0.01 14.68 0 14.73C0.01 14.77 0.04 14.82 0.07 14.85C0.09 14.89 0.13 14.92 0.18 14.94C0.22 14.96 0.26 14.97 0.31 14.97L14.68 14.97C14.73 14.97 14.78 14.96 14.82 14.94C14.86 14.92 14.9 14.89 14.92 14.85C14.95 14.81 14.97 14.77 14.98 14.73C14.99 14.68 14.99 14.63 14.98 14.59Z" fill="#FFFFFF" fill-opacity="1.000000" fill-rule="nonzero"/>
</svg>
