<svg width="14.998474" height="14.996002" viewBox="0 0 14.9985 14.996" fill="none" xmlns="http://www.w3.org/2000/svg" xmlns:xlink="http://www.w3.org/1999/xlink">
	<desc>
			Created with Pixso.
	</desc>
	<defs/>
	<path id="ionicons svg ios call" d="M14.56 11.74C13.76 11.04 12.88 10.45 11.93 9.98C11.14 9.6 10.85 9.61 10.29 10.01C9.83 10.35 9.53 10.66 8.99 10.54C7.06 9.51 5.48 7.93 4.45 6C4.34 5.46 4.65 5.16 4.98 4.7C5.38 4.14 5.39 3.85 5.01 3.06C4.54 2.11 3.95 1.23 3.25 0.43C2.68 -0.15 2.55 -0.02 2.23 0.09C1.9 0.23 1.59 0.4 1.3 0.59C0.82 0.87 0.43 1.28 0.18 1.77C-0.05 2.25 -0.3 3.15 1.01 5.48C1.98 7.27 3.2 8.91 4.65 10.34C6.08 11.78 7.71 13.01 9.5 13.98C11.84 15.29 12.73 15.03 13.21 14.81C13.71 14.56 14.12 14.17 14.39 13.69C14.59 13.39 14.76 13.08 14.89 12.76C15.01 12.44 15.14 12.31 14.56 11.74Z" fill="#FFFFFF" fill-opacity="1.000000" fill-rule="nonzero"/>
</svg>
