<svg width="14.998474" height="14.981689" viewBox="0 0 14.9985 14.9817" fill="none" xmlns="http://www.w3.org/2000/svg" xmlns:xlink="http://www.w3.org/1999/xlink">
	<desc>
			Created with Pixso.
	</desc>
	<defs/>
	<path id="ionicons svg ios call" d="M14.56 11.73C13.76 11.03 12.88 10.44 11.93 9.97C11.14 9.59 10.85 9.6 10.29 10C9.83 10.34 9.53 10.65 8.99 10.53C7.06 9.5 5.48 7.92 4.45 5.99C4.34 5.45 4.65 5.15 4.98 4.69C5.38 4.13 5.39 3.84 5.01 3.06C4.54 2.11 3.95 1.22 3.25 0.43C2.68 -0.15 2.55 -0.02 2.23 0.09C1.9 0.23 1.59 0.4 1.3 0.59C0.82 0.87 0.43 1.28 0.18 1.77C-0.05 2.25 -0.3 3.15 1.01 5.48C1.98 7.27 3.2 8.9 4.65 10.33C6.08 11.77 7.71 13 9.5 13.96C11.84 15.28 12.73 15.02 13.21 14.8C13.71 14.55 14.12 14.16 14.39 13.68C14.59 13.38 14.76 13.07 14.89 12.74C15.01 12.43 15.14 12.3 14.56 11.73Z" fill="#000000" fill-opacity="1.000000" fill-rule="nonzero"/>
</svg>
