<svg width="25.000000" height="25.000000" viewBox="0 0 25 25" fill="none" xmlns="http://www.w3.org/2000/svg" xmlns:xlink="http://www.w3.org/1999/xlink">
	<desc>
			Created with Pixso.
	</desc>
	<defs>
		<clipPath id="clip2_12">
			<rect id="_ionicons_svg_md-locate 1" width="25.000000" height="25.000000" fill="white" fill-opacity="0"/>
		</clipPath>
	</defs>
	<rect id="_ionicons_svg_md-locate 1" width="25.000000" height="25.000000" fill="#FFFFFF" fill-opacity="0"/>
	<g clip-path="url(#clip2_12)">
		<path id="ionicons svg md locate" d="M12.5 8.03C11.61 8.03 10.75 8.29 10.01 8.78C9.28 9.27 8.71 9.97 8.37 10.79C8.03 11.6 7.94 12.5 8.12 13.37C8.29 14.23 8.71 15.03 9.34 15.65C9.96 16.28 10.76 16.7 11.62 16.87C12.49 17.05 13.39 16.96 14.2 16.62C15.02 16.28 15.72 15.71 16.21 14.98C16.7 14.24 16.96 13.38 16.96 12.5C16.96 11.31 16.48 10.18 15.65 9.34C14.81 8.51 13.68 8.03 12.5 8.03ZM23.15 11.31C22.87 8.89 21.79 6.64 20.07 4.92C18.35 3.2 16.1 2.12 13.69 1.84L13.69 0L11.31 0L11.31 1.84C8.89 2.12 6.64 3.2 4.92 4.92C3.2 6.64 2.12 8.89 1.84 11.3L0 11.3L0 13.69L1.84 13.69C2.12 16.1 3.2 18.35 4.92 20.07C6.64 21.79 8.89 22.87 11.31 23.15L11.31 25L13.69 25L13.69 23.15C16.1 22.87 18.35 21.79 20.07 20.07C21.79 18.35 22.87 16.1 23.15 13.69L25 13.69L25 11.31L23.15 11.31ZM12.5 20.83C10.85 20.83 9.24 20.34 7.87 19.42C6.5 18.51 5.43 17.21 4.8 15.68C4.17 14.16 4 12.49 4.32 10.87C4.64 9.25 5.44 7.77 6.6 6.6C7.77 5.44 9.25 4.64 10.87 4.32C12.49 4 14.16 4.17 15.68 4.8C17.21 5.43 18.51 6.5 19.42 7.87C20.34 9.24 20.83 10.85 20.83 12.5C20.82 14.7 19.94 16.82 18.38 18.38C16.82 19.94 14.7 20.82 12.5 20.83Z" fill="#FFFFFF" fill-opacity="1.000000" fill-rule="nonzero"/>
	</g>
</svg>
